<svg width="888" height="235" viewBox="0 0 888 235" fill="none" xmlns="http://www.w3.org/2000/svg">
<path d="M377.884 168.3V206H360.6V168.3H351.32V154.844H360.6V135.356H377.884V154.844H387.164V168.3H377.884ZM422.733 193.936C432.013 193.936 434.565 187.092 434.565 180.596C434.565 174.216 431.781 167.372 422.733 167.372C413.569 167.372 410.785 174.216 410.785 180.596C410.785 187.092 413.337 193.936 422.733 193.936ZM422.733 153.8C438.625 153.8 451.849 164.472 451.849 180.48C451.849 196.836 438.973 207.044 422.733 207.044C406.377 207.044 393.501 196.836 393.501 180.48C393.501 164.472 406.725 153.8 422.733 153.8ZM490.738 193.24C497.698 193.24 502.918 187.208 502.918 180.364C502.918 173.636 497.698 167.604 490.738 167.604C483.778 167.604 478.558 173.636 478.558 180.364C478.558 187.208 483.778 193.24 490.738 193.24ZM502.918 161.108V154.844H520.318V205.884C520.318 222.704 506.978 235 490.738 235C476.818 235 461.622 228.04 460.81 212.496H478.21C479.486 218.528 484.242 222.124 489.81 222.124C497.466 222.124 502.918 215.164 502.918 207.856V199.736C499.438 205.072 491.898 207.16 485.402 207.16C470.902 207.16 459.998 194.516 459.998 180.364C459.998 166.212 470.902 153.684 485.402 153.684C491.898 153.684 497.93 155.308 502.918 161.108ZM550.041 174.332H572.893C572.893 174.332 572.081 164.82 561.525 164.82C550.621 164.82 550.041 174.332 550.041 174.332ZM589.597 179.32C589.597 180.364 589.481 181.524 589.481 182.568H549.809C549.809 188.484 553.985 194.748 560.829 194.748C566.977 194.748 570.805 190.688 570.921 186.976H588.669C585.653 200.432 574.749 207.16 561.177 207.16C543.545 207.16 531.365 196.72 531.365 180.48C531.365 164.472 544.009 153.684 561.177 153.684C576.721 153.684 589.597 162.964 589.597 179.32ZM622.572 168.3V206H605.288V168.3H596.008V154.844H605.288V135.356H622.572V154.844H631.852V168.3H622.572ZM693.405 177V206H676.005V177C676.005 170.968 673.685 167.72 668.233 167.72C662.781 167.72 658.489 173.52 658.489 180.48V206H641.089V119H658.489V161.108C661.969 156.7 667.421 153.684 674.149 153.684C687.837 153.684 693.405 163.08 693.405 177ZM721.322 174.332H744.174C744.174 174.332 743.362 164.82 732.806 164.82C721.902 164.82 721.322 174.332 721.322 174.332ZM760.878 179.32C760.878 180.364 760.762 181.524 760.762 182.568H721.09C721.09 188.484 725.266 194.748 732.11 194.748C738.258 194.748 742.086 190.688 742.202 186.976H759.95C756.934 200.432 746.03 207.16 732.458 207.16C714.826 207.16 702.646 196.72 702.646 180.48C702.646 164.472 715.29 153.684 732.458 153.684C748.002 153.684 760.878 162.964 760.878 179.32ZM800.813 167.72C794.317 167.72 789.329 174.332 789.329 180.48V206H771.929V154.844H789.329V161.108C791.997 157.28 796.405 153.684 802.785 153.684C804.293 153.684 806.613 154.148 808.005 154.844V170.62H807.773C806.033 168.532 803.481 167.72 800.813 167.72Z" fill="black"/>
<path d="M815.18 197.068C815.18 191.384 819.704 186.86 825.388 186.86C830.956 186.86 835.596 191.384 835.596 197.068C835.596 202.636 830.956 207.16 825.388 207.16C819.704 207.16 815.18 202.636 815.18 197.068Z" fill="#CE2D4F"/>
<path d="M373.36 83.48C373.36 90.208 378.58 96.24 385.54 96.24C392.5 96.24 397.72 90.208 397.72 83.48C397.72 76.752 392.5 70.72 385.54 70.72C378.58 70.72 373.36 76.752 373.36 83.48ZM373.36 109H355.96V22H373.36V64.108C377.884 58.54 384.264 56.684 390.876 56.684C405.376 56.684 416.28 69.328 416.28 83.48C416.28 97.632 405.376 110.16 390.876 110.16C384.264 110.16 376.84 108.072 373.36 102.852V109ZM443.103 77.332H465.955C465.955 77.332 465.143 67.82 454.587 67.82C443.683 67.82 443.103 77.332 443.103 77.332ZM482.659 82.32C482.659 83.364 482.543 84.524 482.543 85.568H442.871C442.871 91.484 447.047 97.748 453.891 97.748C460.039 97.748 463.867 93.688 463.983 89.976H481.731C478.715 103.432 467.811 110.16 454.239 110.16C436.607 110.16 424.427 99.72 424.427 83.48C424.427 67.472 437.071 56.684 454.239 56.684C469.783 56.684 482.659 65.964 482.659 82.32ZM515.634 71.3V109H498.35V71.3H489.07V57.844H498.35V38.356H515.634V57.844H524.914V71.3H515.634ZM556.075 71.3V109H538.791V71.3H529.511V57.844H538.791V38.356H556.075V57.844H565.355V71.3H556.075ZM590.369 77.332H613.221C613.221 77.332 612.409 67.82 601.853 67.82C590.949 67.82 590.369 77.332 590.369 77.332ZM629.925 82.32C629.925 83.364 629.809 84.524 629.809 85.568H590.137C590.137 91.484 594.313 97.748 601.157 97.748C607.305 97.748 611.133 93.688 611.249 89.976H628.997C625.981 103.432 615.077 110.16 601.505 110.16C583.873 110.16 571.693 99.72 571.693 83.48C571.693 67.472 584.337 56.684 601.505 56.684C617.049 56.684 629.925 65.964 629.925 82.32ZM669.86 70.72C663.364 70.72 658.376 77.332 658.376 83.48V109H640.976V57.844H658.376V64.108C661.044 60.28 665.452 56.684 671.832 56.684C673.34 56.684 675.66 57.148 677.052 57.844V73.62H676.82C675.08 71.532 672.528 70.72 669.86 70.72Z" fill="black"/>
<path d="M319.58 119.581C319.58 172.531 269.314 212 216.365 212C163.415 212 127.832 161.734 127.832 108.784C127.832 55.8342 170.756 17.2285 223.706 17.2285C276.656 17.2285 319.58 66.6308 319.58 119.581Z" fill="#CE2D4F"/>
<path d="M200.386 108.784C200.386 161.733 157.462 204.658 104.512 204.658C51.5622 204.658 0 161.733 0 108.784C0 55.8336 51.5622 12.4775 104.512 12.4775C157.462 12.4775 200.386 55.8336 200.386 108.784Z" fill="#F9C7C7" fill-opacity="0.5"/>
<g filter="url(#filter0_d_475_2357)">
<path d="M319.88 116.782C326.398 58.0598 275.398 13.8396 222.381 10.4998C171.029 7.26488 127.948 47.463 126.974 116.782C126.359 160.509 183.361 204.192 231.587 204.654C274.815 205.068 313.363 175.505 319.88 116.782Z" stroke="black" stroke-width="4" shape-rendering="crispEdges"/>
</g>
<g filter="url(#filter1_d_475_2357)">
<path d="M199.822 112.464C206.339 53.7415 155.339 9.52124 102.322 6.18145C50.9699 2.94652 7.88965 43.1446 6.91509 112.464C6.30033 156.191 63.3024 199.873 111.528 200.335C154.756 200.749 193.304 171.187 199.822 112.464Z" stroke="black" stroke-width="4" shape-rendering="crispEdges"/>
</g>
<defs>
<filter id="filter0_d_475_2357" x="120.969" y="8.31836" width="205.479" height="206.34" filterUnits="userSpaceOnUse" color-interpolation-filters="sRGB">
<feFlood flood-opacity="0" result="BackgroundImageFix"/>
<feColorMatrix in="SourceAlpha" type="matrix" values="0 0 0 0 0 0 0 0 0 0 0 0 0 0 0 0 0 0 127 0" result="hardAlpha"/>
<feOffset dy="4"/>
<feGaussianBlur stdDeviation="2"/>
<feComposite in2="hardAlpha" operator="out"/>
<feColorMatrix type="matrix" values="0 0 0 0 0 0 0 0 0 0 0 0 0 0 0 0 0 0 0.25 0"/>
<feBlend mode="normal" in2="BackgroundImageFix" result="effect1_dropShadow_475_2357"/>
<feBlend mode="normal" in="SourceGraphic" in2="effect1_dropShadow_475_2357" result="shape"/>
</filter>
<filter id="filter1_d_475_2357" x="0.910156" y="4" width="205.479" height="206.34" filterUnits="userSpaceOnUse" color-interpolation-filters="sRGB">
<feFlood flood-opacity="0" result="BackgroundImageFix"/>
<feColorMatrix in="SourceAlpha" type="matrix" values="0 0 0 0 0 0 0 0 0 0 0 0 0 0 0 0 0 0 127 0" result="hardAlpha"/>
<feOffset dy="4"/>
<feGaussianBlur stdDeviation="2"/>
<feComposite in2="hardAlpha" operator="out"/>
<feColorMatrix type="matrix" values="0 0 0 0 0 0 0 0 0 0 0 0 0 0 0 0 0 0 0.25 0"/>
<feBlend mode="normal" in2="BackgroundImageFix" result="effect1_dropShadow_475_2357"/>
<feBlend mode="normal" in="SourceGraphic" in2="effect1_dropShadow_475_2357" result="shape"/>
</filter>
</defs>
</svg>
